Coordinates
version=1
nRows=8
nColumns=36
inDegrees=yes

Units are S.I. units (second, meters, Newtons, ...)
If the header above contains a line with 'inDegrees', this indicates whether rotational values are in degrees (yes) or radians (no).

endheader
time	pelvis_tilt	pelvis_list	pelvis_rotation	pelvis_tx	pelvis_ty	pelvis_tz	hip_flexion_r	hip_adduction_r	hip_rotation_r	knee_angle_r	knee_angle_r_beta	ankle_angle_r	subtalar_angle_r	mtp_angle_r	hip_flexion_l	hip_adduction_l	hip_rotation_l	knee_angle_l	knee_angle_l_beta	ankle_angle_l	subtalar_angle_l	mtp_angle_l	lumbar_extension	lumbar_bending	lumbar_rotation	arm_flex_r	arm_add_r	arm_rot_r	elbow_flex_r	pro_sup_r	arm_flex_l	arm_add_l	arm_rot_l	elbow_flex_l	pro_sup_l
      0.00000000	    -16.31126263	     -3.90505663	      1.62669393	     -1.00900152	      1.37589144	     -0.06903274	     27.04384777	      5.47505602	     11.57417126	     19.32793448	      0.33733609	      8.22873766	    -23.93673691	     -5.75890511	     34.13892090	     -9.94359377	     -8.50520523	     32.12194753	      0.56063375	     20.46323074	      4.63639022	     -5.75890511	    -21.62588385	     -2.19374760	     -4.53710637	      1.20911457	    -13.47285093	      3.91733006	     20.25199784	     65.94222928	      6.50179018	    -28.00512584	     23.95025446	     48.29350627	     70.29076731
      0.00416670	    -16.39116648	     -4.61297232	      1.52461281	     -1.00784559	      1.37545417	     -0.06896477	     27.77332588	      7.33452900	     13.77288865	     20.97972278	      0.36616524	     12.02158483	    -24.60608735	     -5.80116288	     35.19081642	    -10.53388246	     -6.94205587	     34.37539666	      0.59996385	     24.09194926	      7.31529024	     -5.80116288	    -22.04573669	     -1.86669337	     -3.30298824	      1.46832909	    -11.88445388	      4.38327261	     16.40353835	     65.94482297	      7.49892298	    -26.54296752	     23.03417165	     48.80388824	     70.28049789
      0.00833330	    -16.18779208	     -4.71654897	      1.10383424	     -1.00777175	      1.37591336	     -0.06891945	     27.23300956	      7.84902168	     13.86781795	     20.26538431	      0.35369768	     11.62988417	    -25.62373093	     -6.54957585	     34.88495941	    -10.80941828	     -7.02751876	     34.20659572	      0.59701772	     24.11739110	      7.60986977	     -6.54957585	    -22.23362420	     -2.00141387	     -3.63278941	      2.64377066	    -12.09724697	     14.34134142	     13.38581798	     58.46151271	      6.73791492	    -27.52709340	     24.26564306	     49.97028378	     71.50851628
      0.01250000	    -14.78688049	     -5.19591322	      0.84434835	     -1.00859978	      1.37840308	     -0.06831594	     25.57142855	      8.56396613	     14.34963733	     20.02112602	      0.34943457	     11.64922081	    -26.05012088	     -6.72281736	     33.30772355	    -11.64035676	     -7.49433680	     34.02959044	      0.59392840	     24.72322463	      8.61144373	     -6.72281736	    -24.23508058	     -1.57449219	     -2.73878112	      3.02009647	    -12.11732233	     14.54708324	     12.34641905	     56.95875942	      7.82055838	    -28.25115930	     27.52196136	     50.78051058	     71.58238057
      0.01666670	    -14.12094225	     -5.42357324	      0.39761044	     -1.00784699	      1.37833408	     -0.06914840	     24.81604737	      9.03404086	     14.72391529	     20.14006572	      0.35151046	     11.40254890	    -26.65922593	     -6.82674804	     32.43062322	    -12.32976272	     -8.39542566	     34.20390377	      0.59697074	     25.24583355	      9.38900855	     -6.82674804	    -25.24661948	     -1.25113967	     -2.47209189	      3.54612507	    -12.23316442	     13.95489984	     11.69013921	     56.38452270	      7.54586099	    -28.58241357	     28.72209514	     51.86048329	     70.89453288
      0.02083330	    -13.47125409	     -5.53060896	      0.21585315	     -1.00754710	      1.38123285	     -0.06913807	     24.04091412	      9.21611609	     15.09946789	     20.09880146	      0.35079026	     10.88035486	    -27.55695470	     -6.95987594	     31.73748114	    -12.75997856	     -9.29421572	     34.58387096	      0.60360242	     25.66770797	      9.77761769	     -6.95987594	    -26.39026814	     -1.04731721	     -2.08158683	      4.00067814	    -12.38724783	     12.89349518	     11.46894347	     55.41717979	      8.14772298	    -29.13476113	     31.06270387	     52.90770627	     70.57661902
      0.02500000	    -13.19848413	     -5.69441415	     -0.03968411	     -1.00673417	      1.37866431	     -0.06779690	     23.83222496	      9.55047836	     15.53711749	     20.47541728	      0.35736345	     10.56006476	    -28.47049421	     -7.01857430	     31.57413258	    -13.32222813	     -9.90804784	     35.21035788	      0.61453668	     26.42906227	     10.80280932	     -7.01857430	    -26.76699582	     -0.87273569	     -1.76538940	      4.23964020	    -12.56443531	     11.82419985	     11.42214028	     54.39992072	      8.43244502	    -29.56969016	     32.82539382	     53.60942449	     70.99055071
      0.02916670	    -13.29260655	     -5.94087788	     -0.18891026	     -1.00753539	      1.37599608	     -0.06786659	     24.24812592	      9.95494279	     15.74701076	     21.18956771	      0.36982772	     10.54096989	    -29.10486708	     -7.11697308	     32.10391603	    -13.92135904	    -10.29514153	     36.26931695	      0.63301900	     27.11814436	     11.92956287	     -7.11697308	    -26.65097965	     -0.64724827	     -1.70616772	      4.48374005	    -12.68597993	     10.72602301	     11.22502450	     54.54348436	      8.24467847	    -29.79742102	     33.29704859	     54.38153043	     69.85996751
